<svg width="856" height="246" viewBox="0 0 856 246" fill="none" xmlns="http://www.w3.org/2000/svg">
<path d="M229.423 5.63357V240.366H149.596V41.6259H171.282L57.1986 166.504V142.405H263.365V200.305H0V143.969L127.283 5.63357H229.423Z" fill="#0A0C00"/>
<path d="M429.748 246C402.301 246 378.207 240.888 357.464 230.664C336.931 220.44 320.903 206.148 309.38 187.786C298.066 169.216 292.409 147.621 292.409 123C292.409 98.3791 298.066 76.888 309.38 58.5267C320.903 39.9567 336.931 25.5598 357.464 15.3359C378.207 5.11196 402.301 0 429.748 0C457.195 0 481.185 5.11196 501.718 15.3359C522.46 25.5598 538.488 39.9567 549.802 58.5267C561.326 76.888 567.088 98.3791 567.088 123C567.088 147.621 561.326 169.216 549.802 187.786C538.488 206.148 522.46 220.44 501.718 230.664C481.185 240.888 457.195 246 429.748 246ZM430.062 180.901C447.872 180.901 461.7 175.893 471.547 165.878C481.604 155.654 486.632 141.361 486.632 123C486.632 104.43 481.604 90.1374 471.547 80.1221C461.7 70.1069 447.767 65.0992 429.748 65.0992C411.939 65.0992 398.006 70.1069 387.949 80.1221C377.892 90.1374 372.864 104.326 372.864 122.687C372.864 141.257 377.892 155.654 387.949 165.878C398.006 175.893 412.044 180.901 430.062 180.901Z" fill="#0A0C00"/>
<path d="M822.058 5.63357V240.366H742.231V41.6259H763.917L649.834 166.504V142.405H856V200.305H592.635V143.969L719.918 5.63357H822.058Z" fill="#0A0C00"/>
</svg>
