<svg width="78" height="30" viewBox="0 0 78 30" fill="none" xmlns="http://www.w3.org/2000/svg">
<g clip-path="url(#clip0_328_4211)">
<path d="M18.5147 0C15.4686 0 12.5473 1.21005 10.3934 3.36396L3.36396 10.3934C1.21005 12.5473 0 15.4686 0 18.5147C0 24.8579 5.14214 30 11.4853 30C14.5314 30 17.4527 28.7899 19.6066 26.636L24.4689 21.7737C24.4689 21.7736 24.469 21.7738 24.4689 21.7737L38.636 7.6066C39.6647 6.57791 41.0599 6 42.5147 6C44.9503 6 47.0152 7.58741 47.7311 9.78407L52.2022 5.31296C50.1625 2.11834 46.586 0 42.5147 0C39.4686 0 36.5473 1.21005 34.3934 3.36396L15.364 22.3934C14.3353 23.4221 12.9401 24 11.4853 24C8.45584 24 6 21.5442 6 18.5147C6 17.0599 6.57791 15.6647 7.6066 14.636L14.636 7.6066C15.6647 6.57791 17.0599 6 18.5147 6C20.9504 6 23.0152 7.58748 23.7311 9.78421L28.2023 5.31307C26.1626 2.1184 22.5861 0 18.5147 0Z" fill="#0A0C00"/>
<path d="M39.3641 22.3934C38.3354 23.4221 36.9402 24 35.4854 24C33.0501 24 30.9854 22.413 30.2693 20.2167L25.7983 24.6877C27.8381 27.8819 31.4144 30 35.4854 30C38.5315 30 41.4528 28.7899 43.6067 26.636L62.6361 7.6066C63.6648 6.57791 65.06 6 66.5148 6C69.5443 6 72.0001 8.45584 72.0001 11.4853C72.0001 12.9401 71.4222 14.3353 70.3935 15.364L63.3641 22.3934C62.3354 23.4221 60.9402 24 59.4854 24C57.0499 24 54.9851 22.4127 54.2691 20.2162L49.7981 24.6873C51.8378 27.8818 55.4142 30 59.4854 30C62.5315 30 65.4528 28.7899 67.6067 26.636L74.6361 19.6066C76.79 17.4527 78.0001 14.5314 78.0001 11.4853C78.0001 5.14214 72.858 0 66.5148 0C63.4687 0 60.5474 1.21005 58.3935 3.36396L39.3641 22.3934Z" fill="#0A0C00"/>
</g>
<defs>
<clipPath id="clip0_328_4211">
<rect width="78" height="30" fill="white"/>
</clipPath>
</defs>
</svg>
