<svg width="93" height="24" viewBox="0 0 93 24" fill="none" xmlns="http://www.w3.org/2000/svg">
  <path
    d="M2.668 10.231H18.415V14.9H2.668V10.231ZM18.937 1.18303V5.85203H2.784L5.481 3.15503V22.933H0V1.18303H18.937Z"
    fill="black" />
  <path
    d="M30.9727 23.397C28.8847 23.397 27.0577 23.0297 25.4917 22.295C23.9257 21.5604 22.7077 20.5357 21.8377 19.221C20.9677 17.9064 20.5327 16.3887 20.5327 14.668C20.5327 12.928 20.9677 11.4104 21.8377 10.115C22.7077 8.80036 23.9257 7.77569 25.4917 7.04103C27.077 6.30636 28.904 5.93903 30.9727 5.93903C33.0607 5.93903 34.8877 6.30636 36.4537 7.04103C38.0197 7.77569 39.2377 8.80036 40.1077 10.115C40.997 11.4104 41.4417 12.928 41.4417 14.668C41.4417 16.408 40.997 17.9354 40.1077 19.25C39.2377 20.5454 38.0197 21.5604 36.4537 22.295C34.8877 23.0297 33.0607 23.397 30.9727 23.397ZM30.9727 19.337C32.036 19.337 32.935 19.1534 33.6697 18.786C34.4237 18.3994 34.994 17.858 35.3807 17.162C35.7867 16.466 35.9897 15.6347 35.9897 14.668C35.9897 13.7014 35.7867 12.87 35.3807 12.174C34.994 11.4587 34.4237 10.9174 33.6697 10.55C32.935 10.1634 32.036 9.97003 30.9727 9.97003C29.948 9.97003 29.0587 10.1634 28.3047 10.55C27.5507 10.9174 26.9707 11.4587 26.5647 12.174C26.1587 12.87 25.9557 13.7014 25.9557 14.668C25.9557 15.6347 26.1587 16.466 26.5647 17.162C26.9707 17.858 27.5507 18.3994 28.3047 18.786C29.0587 19.1534 29.948 19.337 30.9727 19.337Z"
    fill="black" />
  <path d="M44.1142 0.603027H49.4792V22.933H44.1142V0.603027Z" fill="black" />
  <path
    d="M62.4331 23.397C60.4611 23.397 58.6921 23.0297 57.1261 22.295C55.5795 21.5604 54.3615 20.5357 53.4721 19.221C52.5828 17.9064 52.1381 16.3694 52.1381 14.61C52.1381 12.8894 52.5635 11.3814 53.4142 10.086C54.2648 8.79069 55.4345 7.77569 56.9231 7.04103C58.4311 6.30636 60.1325 5.93903 62.0271 5.93903C63.9605 5.93903 65.6232 6.36436 67.0152 7.21503C68.4072 8.06569 69.4801 9.26436 70.2341 10.811C70.9881 12.3577 71.3652 14.175 71.3652 16.263H56.4591V12.87H68.4072L66.4641 14.088C66.4061 13.1794 66.1838 12.4157 65.7971 11.797C65.4298 11.159 64.9368 10.6757 64.3181 10.347C63.6995 9.99903 62.9648 9.82503 62.1141 9.82503C61.1861 9.82503 60.3838 10.0087 59.7071 10.376C59.0305 10.7434 58.4988 11.2557 58.1121 11.913C57.7448 12.5704 57.5611 13.334 57.5611 14.204C57.5611 15.306 57.8028 16.2437 58.2861 17.017C58.7888 17.7904 59.5041 18.38 60.4321 18.786C61.3795 19.192 62.5298 19.395 63.8831 19.395C65.1205 19.395 66.3578 19.2307 67.5951 18.902C68.8325 18.554 69.9441 18.0707 70.9301 17.452V20.961C69.8088 21.7344 68.5232 22.3337 67.0732 22.759C65.6425 23.1844 64.0958 23.397 62.4331 23.397Z"
    fill="black" />
  <path
    d="M71.3391 22.933L79.0531 13.624V15.393L71.7741 6.40303H77.7771L82.7071 12.377H80.9961L85.9261 6.40303H91.8131L84.3311 15.48L84.0701 13.16L92.2771 22.933H86.1581L80.8221 16.524H82.6201L77.3421 22.933H71.3391Z"
    fill="black" />
</svg>