<svg width="34" height="34" viewBox="0 0 34 34" fill="none" xmlns="http://www.w3.org/2000/svg">
<g clip-path="url(#clip0_1169_11753)">
<path d="M11.8446 1.11905C8.44752 2.29755 5.51784 4.53437 3.48594 7.50097C1.45403 10.4676 0.426999 14.0076 0.555697 17.601C0.684394 21.1944 1.96204 24.6519 4.20096 27.4655C6.43988 30.2792 9.52207 32.3007 12.9948 33.2331C15.8102 33.9596 18.76 33.9915 21.5904 33.3261C24.1546 32.7501 26.5252 31.5181 28.4701 29.7508C30.4944 27.8551 31.9637 25.4436 32.7201 22.7755C33.5423 19.874 33.6886 16.8226 33.1478 13.8558H17.3378V20.4141H26.4939C26.3109 21.4601 25.9187 22.4584 25.3409 23.3493C24.7631 24.2402 24.0115 25.0054 23.1311 25.5991C22.013 26.3386 20.7526 26.8363 19.4309 27.06C18.1053 27.3065 16.7456 27.3065 15.42 27.06C14.0764 26.7822 12.8054 26.2277 11.6879 25.4317C9.8927 24.1609 8.54472 22.3556 7.83637 20.2733C7.11603 18.152 7.11603 15.8522 7.83637 13.7309C8.34059 12.244 9.17414 10.8902 10.2748 9.77046C11.5344 8.46557 13.129 7.53283 14.8838 7.07457C16.6386 6.61631 18.4857 6.65025 20.2225 7.17265C21.5792 7.58913 22.8199 8.31679 23.8456 9.29765C24.878 8.27056 25.9086 7.24083 26.9375 6.20843C27.4687 5.65327 28.0478 5.12468 28.5711 4.55624C27.0054 3.09923 25.1676 1.96549 23.1629 1.21999C19.5125 -0.105504 15.5182 -0.141125 11.8446 1.11905Z" fill="white"/>
<path d="M11.8435 1.11839C15.5167 -0.142644 19.511 -0.10796 23.1618 1.21667C25.1668 1.96723 27.0038 3.10643 28.5673 4.56886C28.036 5.1373 27.4755 5.66855 26.9337 6.22105C25.903 7.2499 24.8733 8.27522 23.8445 9.29699C22.8187 8.31613 21.5781 7.58846 20.2213 7.17199C18.4851 6.64775 16.6381 6.61186 14.8828 7.06824C13.1276 7.52462 11.532 8.45565 10.271 9.75917C9.17035 10.8789 8.3368 12.2327 7.83258 13.7196L2.32617 9.45636C4.29713 5.54785 7.70972 2.55814 11.8435 1.11839Z" fill="#E33629"/>
<path d="M0.866477 13.6805C1.16244 12.2137 1.6538 10.7932 2.32741 9.45703L7.83382 13.7309C7.11348 15.8522 7.11348 18.152 7.83382 20.2733C5.99924 21.6899 4.16377 23.1137 2.32741 24.5445C0.641096 21.1879 0.126798 17.3634 0.866477 13.6805Z" fill="#F8BD00"/>
<path d="M17.3371 13.8516H33.1471C33.6879 16.8184 33.5416 19.8697 32.7195 22.7713C31.9631 25.4394 30.4937 27.8509 28.4695 29.7466C26.6924 28.36 24.9074 26.9841 23.1304 25.5975C24.0114 25.0032 24.7634 24.2372 25.3412 23.3454C25.9191 22.4535 26.3109 21.4541 26.4932 20.4072H17.3371C17.3345 18.2238 17.3371 16.0377 17.3371 13.8516Z" fill="#587DBD"/>
<path d="M2.32422 24.5447C4.16057 23.128 5.99604 21.7043 7.83062 20.2734C8.54039 22.3565 9.89029 24.1619 11.6875 25.4319C12.8085 26.2241 14.0822 26.7742 15.4275 27.0469C16.7531 27.2934 18.1128 27.2934 19.4384 27.0469C20.7602 26.8231 22.0205 26.3255 23.1386 25.5859C24.9156 26.9725 26.7006 28.3484 28.4777 29.735C26.533 31.5033 24.1624 32.7362 21.598 33.313C18.7675 33.9784 15.8178 33.9465 13.0023 33.22C10.7756 32.6255 8.6957 31.5774 6.89297 30.1414C4.98488 28.6265 3.42644 26.7174 2.32422 24.5447Z" fill="#319F43"/>
</g>
<defs>
<clipPath id="clip0_1169_11753">
<rect width="34" height="34" fill="white"/>
</clipPath>
</defs>
</svg>
